<svg width="64" height="32" viewBox="0 0 64 32" xmlns="http://www.w3.org/2000/svg">
  <!-- Isometric hill tile -->
  <polygon points="32,0 64,16 32,32 0,16" fill="#B08D57"/>
  
  <!-- Hill elevation -->
  <polygon points="32,0 64,16 32,32 0,16" fill="#C09667" fill-opacity="0.5"/>
  
  <!-- Rock details -->
  <g opacity="0.5">
    <circle cx="20" cy="10" r="2" fill="#7D6545"/>
    <circle cx="44" cy="10" r="2" fill="#7D6545"/>
    <circle cx="32" cy="24" r="2" fill="#7D6545"/>
    
    <polygon points="22,15 26,17 24,19 20,17" fill="#7D6545"/>
    <polygon points="42,15 38,17 40,19 44,17" fill="#7D6545"/>
  </g>
  
  <!-- Hill height lines -->
  <path d="M 16,14 C 24,10 40,10 48,14" stroke="#A67F51" stroke-width="1" fill="none" opacity="0.6"/>
  <path d="M 12,18 C 25,14 40,14 52,18" stroke="#A67F51" stroke-width="1" fill="none" opacity="0.6"/>
  <path d="M 16,22 C 24,18 40,18 48,22" stroke="#A67F51" stroke-width="1" fill="none" opacity="0.6"/>
</svg>
