<?xml version="1.0" encoding="UTF-8" standalone="no"?>
<svg xmlns="http://www.w3.org/2000/svg" width="256" height="192" viewBox="0 0 256 192">
  <!-- IDLE ROW -->
  <!-- Frame 1 -->
  <rect x="0" y="0" width="64" height="64" fill="#f9f9f9" stroke="#333" stroke-width="1" />
  <circle cx="32" cy="24" r="16" fill="#ffe0a0" stroke="#333" />
  <rect x="28" y="32" width="8" height="24" fill="#8595a1" />
  <line x1="32" y1="56" x2="24" y2="64" stroke="#333" stroke-width="2" />
  <line x1="32" y1="56" x2="40" y2="64" stroke="#333" stroke-width="2" />
  <text x="32" y="12" font-family="Arial" font-size="8" text-anchor="middle">idle 1</text>
  
  <!-- Frame 2 -->
  <rect x="64" y="0" width="64" height="64" fill="#f9f9f9" stroke="#333" stroke-width="1" />
  <circle cx="96" cy="24" r="16" fill="#ffe0a0" stroke="#333" />
  <rect x="92" y="33" width="8" height="23" fill="#8595a1" />
  <line x1="96" y1="56" x2="88" y2="64" stroke="#333" stroke-width="2" />
  <line x1="96" y1="56" x2="104" y2="64" stroke="#333" stroke-width="2" />
  <text x="96" y="12" font-family="Arial" font-size="8" text-anchor="middle">idle 2</text>
  
  <!-- Frame 3 -->
  <rect x="128" y="0" width="64" height="64" fill="#f9f9f9" stroke="#333" stroke-width="1" />
  <circle cx="160" cy="24" r="16" fill="#ffe0a0" stroke="#333" />
  <rect x="156" y="32" width="8" height="24" fill="#8595a1" />
  <line x1="160" y1="56" x2="152" y2="64" stroke="#333" stroke-width="2" />
  <line x1="160" y1="56" x2="168" y2="64" stroke="#333" stroke-width="2" />
  <text x="160" y="12" font-family="Arial" font-size="8" text-anchor="middle">idle 3</text>
  
  <!-- Frame 4 -->
  <rect x="192" y="0" width="64" height="64" fill="#f9f9f9" stroke="#333" stroke-width="1" />
  <circle cx="224" cy="24" r="16" fill="#ffe0a0" stroke="#333" />
  <rect x="220" y="33" width="8" height="23" fill="#8595a1" />
  <line x1="224" y1="56" x2="216" y2="64" stroke="#333" stroke-width="2" />
  <line x1="224" y1="56" x2="232" y2="64" stroke="#333" stroke-width="2" />
  <text x="224" y="12" font-family="Arial" font-size="8" text-anchor="middle">idle 4</text>
  
  <!-- MOVE ROW -->
  <!-- Frame 1 -->
  <rect x="0" y="64" width="64" height="64" fill="#f9f9f9" stroke="#333" stroke-width="1" />
  <circle cx="32" cy="88" r="16" fill="#ffe0a0" stroke="#333" />
  <rect x="28" y="96" width="8" height="24" fill="#8595a1" />
  <line x1="32" y1="120" x2="24" y2="128" stroke="#333" stroke-width="2" />
  <line x1="32" y1="120" x2="42" y2="126" stroke="#333" stroke-width="2" />
  <text x="32" y="76" font-family="Arial" font-size="8" text-anchor="middle">move 1</text>
  
  <!-- Frame 2 -->
  <rect x="64" y="64" width="64" height="64" fill="#f9f9f9" stroke="#333" stroke-width="1" />
  <circle cx="96" cy="88" r="16" fill="#ffe0a0" stroke="#333" />
  <rect x="92" y="96" width="8" height="24" fill="#8595a1" />
  <line x1="96" y1="120" x2="85" y2="124" stroke="#333" stroke-width="2" />
  <line x1="96" y1="120" x2="106" y2="128" stroke="#333" stroke-width="2" />
  <text x="96" y="76" font-family="Arial" font-size="8" text-anchor="middle">move 2</text>
  
  <!-- Frame 3 -->
  <rect x="128" y="64" width="64" height="64" fill="#f9f9f9" stroke="#333" stroke-width="1" />
  <circle cx="160" cy="88" r="16" fill="#ffe0a0" stroke="#333" />
  <rect x="156" y="96" width="8" height="24" fill="#8595a1" />
  <line x1="160" y1="120" x2="148" y2="126" stroke="#333" stroke-width="2" />
  <line x1="160" y1="120" x2="168" y2="122" stroke="#333" stroke-width="2" />
  <text x="160" y="76" font-family="Arial" font-size="8" text-anchor="middle">move 3</text>
  
  <!-- Frame 4 -->
  <rect x="192" y="64" width="64" height="64" fill="#f9f9f9" stroke="#333" stroke-width="1" />
  <circle cx="224" cy="88" r="16" fill="#ffe0a0" stroke="#333" />
  <rect x="220" y="96" width="8" height="24" fill="#8595a1" />
  <line x1="224" y1="120" x2="210" y2="122" stroke="#333" stroke-width="2" />
  <line x1="224" y1="120" x2="235" y2="124" stroke="#333" stroke-width="2" />
  <text x="224" y="76" font-family="Arial" font-size="8" text-anchor="middle">move 4</text>
  
  <!-- GATHER ROW -->
  <!-- Frame 1 -->
  <rect x="0" y="128" width="64" height="64" fill="#f9f9f9" stroke="#333" stroke-width="1" />
  <circle cx="32" cy="152" r="16" fill="#ffe0a0" stroke="#333" />
  <rect x="28" y="160" width="8" height="24" fill="#8595a1" />
  <path d="M42,148 L48,142" stroke="#333" stroke-width="2" fill="none" />
  <path d="M48,142 L40,138" stroke="#333" stroke-width="2" fill="none" />
  <text x="32" y="140" font-family="Arial" font-size="8" text-anchor="middle">gather 1</text>
  
  <!-- Frame 2 -->
  <rect x="64" y="128" width="64" height="64" fill="#f9f9f9" stroke="#333" stroke-width="1" />
  <circle cx="96" cy="152" r="16" fill="#ffe0a0" stroke="#333" />
  <rect x="92" y="160" width="8" height="24" fill="#8595a1" />
  <path d="M106,148 L114,138" stroke="#333" stroke-width="3" fill="none" />
  <path d="M114,138 L106,136" stroke="#333" stroke-width="3" fill="none" />
  <text x="96" y="140" font-family="Arial" font-size="8" text-anchor="middle">gather 2</text>
  
  <!-- Frame 3 -->
  <rect x="128" y="128" width="64" height="64" fill="#f9f9f9" stroke="#333" stroke-width="1" />
  <circle cx="160" cy="152" r="16" fill="#ffe0a0" stroke="#333" />
  <rect x="156" y="160" width="8" height="24" fill="#8595a1" />
  <path d="M170,152 L176,144" stroke="#333" stroke-width="2" fill="none" />
  <path d="M176,144 L166,142" stroke="#333" stroke-width="2" fill="none" />
  <text x="160" y="140" font-family="Arial" font-size="8" text-anchor="middle">gather 3</text>
  
  <!-- Frame 4 -->
  <rect x="192" y="128" width="64" height="64" fill="#f9f9f9" stroke="#333" stroke-width="1" />
  <circle cx="224" cy="152" r="16" fill="#ffe0a0" stroke="#333" />
  <rect x="220" y="160" width="8" height="24" fill="#8595a1" />
  <path d="M234,152 L240,146" stroke="#333" stroke-width="1" fill="none" />
  <path d="M240,146 L230,146" stroke="#333" stroke-width="1" fill="none" />
  <text x="224" y="140" font-family="Arial" font-size="8" text-anchor="middle">gather 4</text>
</svg>
