<svg width="64" height="64" viewBox="0 0 64 64" xmlns="http://www.w3.org/2000/svg">
  <!-- Barracks Building - Book of Mormon themed -->
  
  <!-- Base/Shadow -->
  <ellipse cx="32" cy="58" rx="24" ry="6" fill="#333333" opacity="0.3"/>
  
  <!-- Main structure -->
  <g transform="translate(32, 32)">
    <!-- Base platform -->
    <rect x="-20" y="4" width="40" height="6" fill="#8D6E63"/>
    
    <!-- Main building - rectangular structure -->
    <rect x="-18" y="-16" width="36" height="20" fill="#795548"/>
    
    <!-- Stone foundation -->
    <rect x="-18" y="0" width="36" height="4" fill="#5D4037"/>
    <line x1="-18" y1="2" x2="18" y2="2" stroke="#4E342E" stroke-width="1" stroke-dasharray="2,2"/>
    
    <!-- Door -->
    <rect x="-4" y="-8" width="8" height="12" fill="#5D4037"/>
    <rect x="-3" y="-7" width="6" height="10" fill="#3E2723"/>
    
    <!-- Windows - barracks style -->
    <rect x="-14" y="-12" width="4" height="4" fill="#BCAAA4"/>
    <rect x="10" y="-12" width="4" height="4" fill="#BCAAA4"/>
    <line x1="-14" y1="-10" x2="-10" y2="-10" stroke="#5D4037" stroke-width="1"/>
    <line x1="-12" y1="-12" x2="-12" y2="-8" stroke="#5D4037" stroke-width="1"/>
    <line x1="10" y1="-10" x2="14" y2="-10" stroke="#5D4037" stroke-width="1"/>
    <line x1="12" y1="-12" x2="12" y2="-8" stroke="#5D4037" stroke-width="1"/>
    
    <!-- Roof - angled -->
    <polygon points="-20,-16 20,-16 14,-26 -14,-26" fill="#8D6E63"/>
    <line x1="-14" y1="-26" x2="14" y2="-26" stroke="#5D4037" stroke-width="1"/>
    
    <!-- Weapon rack -->
    <rect x="-16" y="-4" width="10" height="1" fill="#3E2723"/>
    <line x1="-15" y1="-4" x2="-15" y2="-8" stroke="#A0A0A0" stroke-width="1"/>
    <line x1="-12" y1="-4" x2="-12" y2="-8" stroke="#A0A0A0" stroke-width="1"/>
    <line x1="-9" y1="-4" x2="-9" y2="-8" stroke="#A0A0A0" stroke-width="1"/>
  </g>
  
  <!-- Decorative elements -->
  <g transform="translate(32, 32)">
    <!-- Training post -->
    <rect x="12" y="-6" width="2" height="6" fill="#5D4037"/>
    <circle cx="13" cy="-10" r="4" fill="#8D6E63"/>
    
    <!-- Flag/banner -->
    <rect x="0" y="-26" width="1" height="10" fill="#5D4037"/>
    <polygon points="0,-26 6,-24 6,-18 0,-16" fill="#BF360C"/>
    <circle cx="3" cy="-22" r="1" fill="#FFEB3B"/>
    <circle cx="3" cy="-20" r="1" fill="#FFEB3B"/>
  </g>
</svg>
