<svg width="64" height="64" viewBox="0 0 64 64" xmlns="http://www.w3.org/2000/svg">
  <!-- City Building - Book of Mormon themed -->
  
  <!-- Base/Shadow -->
  <ellipse cx="32" cy="58" rx="28" ry="6" fill="#333333" opacity="0.3"/>
  
  <!-- Main structure - temple-like building -->
  <g transform="translate(32, 32)">
    <!-- Base platform -->
    <rect x="-24" y="4" width="48" height="8" fill="#8D6E63"/>
    <rect x="-26" y="2" width="52" height="4" fill="#A1887F"/>
    
    <!-- Steps -->
    <rect x="-20" y="0" width="40" height="2" fill="#BCAAA4"/>
    <rect x="-22" y="2" width="44" height="2" fill="#BCAAA4"/>
    
    <!-- Main building -->
    <rect x="-18" y="-20" width="36" height="24" fill="#D7CCC8"/>
    
    <!-- Door -->
    <rect x="-4" y="-8" width="8" height="12" fill="#5D4037"/>
    <rect x="-3" y="-7" width="6" height="10" fill="#3E2723"/>
    
    <!-- Windows -->
    <rect x="-14" y="-14" width="6" height="6" fill="#90A4AE"/>
    <rect x="8" y="-14" width="6" height="6" fill="#90A4AE"/>
    <rect x="-14" y="-4" width="6" height="4" fill="#90A4AE"/>
    <rect x="8" y="-4" width="6" height="4" fill="#90A4AE"/>
    
    <!-- Roof structure -->
    <polygon points="-20,-20 20,-20 15,-30 -15,-30" fill="#8D6E63"/>
    <rect x="-10" y="-34" width="20" height="4" fill="#A1887F"/>
    
    <!-- Center tower/spire -->
    <rect x="-3" y="-40" width="6" height="10" fill="#BCAAA4"/>
    <polygon points="-4,-40 4,-40 0,-46" fill="#8D6E63"/>
  </g>
  
  <!-- Decorative elements -->
  <g transform="translate(32, 32)">
    <!-- Pillars -->
    <rect x="-22" y="-18" width="4" height="18" fill="#BCAAA4"/>
    <rect x="18" y="-18" width="4" height="18" fill="#BCAAA4"/>
    
    <!-- Flags -->
    <rect x="-2" y="-46" width="1" height="6" fill="#5D4037"/>
    <polygon points="-2,-46 3,-44 -2,-42" fill="#FFA000"/>
  </g>
</svg>
