<svg width="64" height="64" viewBox="0 0 64 64" xmlns="http://www.w3.org/2000/svg">
  <!-- Ranged Unit - Book of Mormon themed -->
  
  <!-- Base/Shadow -->
  <ellipse cx="32" cy="54" rx="20" ry="10" fill="#333333" opacity="0.3"/>
  
  <!-- Body -->
  <g transform="translate(32, 36)">
    <!-- Light Armor/Tunic -->
    <path d="M -8,0 L -6,16 L 6,16 L 8,0 Z" fill="#8D6E63"/>
    
    <!-- Belt -->
    <rect x="-8" y="-2" width="16" height="4" fill="#5D4037"/>
    
    <!-- Legs -->
    <rect x="-6" y="16" width="4" height="6" fill="#5D4037"/>
    <rect x="2" y="16" width="4" height="6" fill="#5D4037"/>
  </g>
  
  <!-- Head and upper body -->
  <g transform="translate(32, 28)">
    <!-- Bow arm -->
    <line x1="-12" y1="0" x2="-16" y2="4" stroke="#8D6E63" stroke-width="3" stroke-linecap="round"/>
    
    <!-- Bow -->
    <path d="M -18,10 C -24,6 -24,-2 -18,-6" fill="none" stroke="#8B4513" stroke-width="2"/>
    <line x1="-18" y1="-6" x2="-18" y2="10" stroke="#8B4513" stroke-width="1"/>
    
    <!-- Arrow arm -->
    <line x1="12" y1="0" x2="16" y2="-2" stroke="#8D6E63" stroke-width="3" stroke-linecap="round"/>
    
    <!-- Arrow -->
    <line x1="-16" y1="2" x2="16" y2="2" stroke="#A0522D" stroke-width="1"/>
    <path d="M 16,0 L 20,2 L 16,4" fill="#A0522D"/>
    <path d="M -16,0 L -18,2 L -16,4" fill="#808080"/>
    
    <!-- Quiver -->
    <rect x="6" y="6" width="6" height="12" rx="2" ry="2" fill="#A0522D"/>
    <line x1="8" y1="4" x2="8" y2="8" stroke="#A0522D" stroke-width="1"/>
    <line x1="10" y1="4" x2="10" y2="8" stroke="#A0522D" stroke-width="1"/>
    
    <!-- Neck -->
    <rect x="-2" y="-4" width="4" height="4" fill="#A67C52"/>
    
    <!-- Head -->
    <circle cx="0" cy="-12" r="8" fill="#A67C52"/>
    
    <!-- Hair - warrior style -->
    <path d="M -8,-12 A 8,8 0 0 1 8,-12 L 8,-8 L -8,-8 Z" fill="#3E2723"/>
    
    <!-- Headband -->
    <path d="M -8,-14 A 8,8 0 0 1 8,-14 L 8,-12 L -8,-12 Z" fill="#D7CCC8"/>
    
    <!-- Simple face details -->
    <circle cx="-3" cy="-13" r="1" fill="#3E2723"/>
    <circle cx="3" cy="-13" r="1" fill="#3E2723"/>
    <path d="M -2,-10 A 4,3 0 0 0 2,-10" fill="none" stroke="#3E2723" stroke-width="1"/>
  </g>
</svg>
