<svg width="64" height="64" viewBox="0 0 64 64" xmlns="http://www.w3.org/2000/svg">
  <!-- Worker Unit - Book of Mormon themed -->
  
  <!-- Base/Shadow -->
  <ellipse cx="32" cy="54" rx="20" ry="10" fill="#333333" opacity="0.3"/>
  
  <!-- Body -->
  <g transform="translate(32, 36)">
    <!-- Tunic/Robe -->
    <path d="M -8,0 L -6,16 L 6,16 L 8,0 Z" fill="#A67C52"/>
    
    <!-- Belt -->
    <rect x="-8" y="-2" width="16" height="4" fill="#5D4037"/>
    
    <!-- Legs -->
    <rect x="-6" y="16" width="4" height="6" fill="#8D6E63"/>
    <rect x="2" y="16" width="4" height="6" fill="#8D6E63"/>
    
    <!-- Tools - shovel/hoe -->
    <line x1="12" y1="-4" x2="12" y2="12" stroke="#5D4037" stroke-width="2"/>
    <path d="M 9,12 L 12,12 L 15,15" fill="none" stroke="#5D4037" stroke-width="2"/>
  </g>
  
  <!-- Head and upper body -->
  <g transform="translate(32, 30)">
    <!-- Arms -->
    <line x1="-10" y1="0" x2="-14" y2="6" stroke="#8D6E63" stroke-width="3" stroke-linecap="round"/>
    <line x1="10" y1="0" x2="14" y2="6" stroke="#8D6E63" stroke-width="3" stroke-linecap="round"/>
    
    <!-- Neck -->
    <rect x="-2" y="-4" width="4" height="4" fill="#8D6E63"/>
    
    <!-- Head -->
    <circle cx="0" cy="-12" r="8" fill="#A67C52"/>
    
    <!-- Hair - long Nephite style -->
    <path d="M -8,-12 A 8,8 0 0 1 8,-12 L 8,-8 L -8,-8 Z" fill="#3E2723"/>
    
    <!-- Simple face details -->
    <circle cx="-3" cy="-13" r="1" fill="#3E2723"/>
    <circle cx="3" cy="-13" r="1" fill="#3E2723"/>
    <path d="M -2,-10 A 4,3 0 0 0 2,-10" fill="none" stroke="#3E2723" stroke-width="1"/>
  </g>
</svg>
